<svg width="50" height="50" viewBox="0 0 50 50" fill="none" xmlns="http://www.w3.org/2000/svg">
<rect width="50" height="50" rx="10" fill="#F2C94C"/>
<g filter="url(#filter0_d)">
<path d="M18.6 25C21.695 25 24.2 22.2602 24.2 18.875C24.2 15.4898 21.695 12.75 18.6 12.75C15.505 12.75 13 15.4898 13 18.875C13 22.2602 15.505 25 18.6 25ZM22.44 26.75H22.025C20.985 27.2969 19.83 27.625 18.6 27.625C17.37 27.625 16.22 27.2969 15.175 26.75H14.76C11.58 26.75 9 29.5719 9 33.05V34.625C9 36.0742 10.075 37.25 11.4 37.25H25.8C27.125 37.25 28.2 36.0742 28.2 34.625V33.05C28.2 29.5719 25.62 26.75 22.44 26.75ZM33 25C35.65 25 37.8 22.6484 37.8 19.75C37.8 16.8516 35.65 14.5 33 14.5C30.35 14.5 28.2 16.8516 28.2 19.75C28.2 22.6484 30.35 25 33 25ZM35.4 26.75H35.21C34.515 27.0125 33.78 27.1875 33 27.1875C32.22 27.1875 31.485 27.0125 30.79 26.75H30.6C29.58 26.75 28.64 27.0727 27.815 27.5922C29.035 29.0305 29.8 30.9391 29.8 33.05V35.15C29.8 35.2703 29.775 35.3852 29.77 35.5H38.6C39.925 35.5 41 34.3242 41 32.875C41 29.4898 38.495 26.75 35.4 26.75Z" fill="#F2F2F2"/>
</g>
<defs>
<filter id="filter0_d" x="5" y="11" width="40" height="36" filterUnits="userSpaceOnUse" color-interpolation-filters="sRGB">
<feFlood flood-opacity="0" result="BackgroundImageFix"/>
<feColorMatrix in="SourceAlpha" type="matrix" values="0 0 0 0 0 0 0 0 0 0 0 0 0 0 0 0 0 0 127 0"/>
<feOffset dy="4"/>
<feGaussianBlur stdDeviation="2"/>
<feColorMatrix type="matrix" values="0 0 0 0 0 0 0 0 0 0 0 0 0 0 0 0 0 0 0.25 0"/>
<feBlend mode="normal" in2="BackgroundImageFix" result="effect1_dropShadow"/>
<feBlend mode="normal" in="SourceGraphic" in2="effect1_dropShadow" result="shape"/>
</filter>
</defs>
</svg>
