<svg width="109" height="19" viewBox="0 0 109 19" fill="none" xmlns="http://www.w3.org/2000/svg">
<path d="M4.48 1.472C6.34 1.472 7.762 2.024 8.746 3.128C9.73 4.232 10.222 5.768 10.222 7.736C10.222 9.704 9.73 11.24 8.746 12.344C7.762 13.448 6.34 14 4.48 14H0.25V1.472H4.48ZM4.606 12.488C5.902 12.488 6.874 12.068 7.522 11.228C8.182 10.376 8.512 9.212 8.512 7.736C8.512 6.26 8.182 5.102 7.522 4.262C6.874 3.41 5.902 2.984 4.606 2.984H1.834V12.488H4.606ZM19.6949 14L19.4429 12.65C18.9749 13.166 18.4649 13.556 17.9129 13.82C17.3729 14.084 16.7609 14.216 16.0769 14.216C15.2249 14.216 14.5349 13.976 14.0069 13.496C13.4789 13.004 13.2149 12.356 13.2149 11.552C13.2149 10.508 13.6349 9.74 14.4749 9.248C15.3149 8.756 16.3949 8.51 17.7149 8.51C18.1949 8.51 18.7229 8.54 19.2989 8.6V7.952C19.2989 7.304 19.1189 6.788 18.7589 6.404C18.4109 6.008 17.9549 5.81 17.3909 5.81C16.7189 5.81 16.1069 5.9 15.5549 6.08C15.0149 6.26 14.4569 6.542 13.8809 6.926V5.396C14.4449 5.024 15.0209 4.766 15.6089 4.622C16.1969 4.466 16.8689 4.388 17.6249 4.388C18.5849 4.388 19.3649 4.694 19.9649 5.306C20.5769 5.918 20.8829 6.728 20.8829 7.736V11.912L21.2789 14H19.6949ZM16.4009 12.884C16.9769 12.884 17.4929 12.764 17.9489 12.524C18.4049 12.284 18.8549 11.936 19.2989 11.48V9.716H17.6429C15.8309 9.716 14.9249 10.298 14.9249 11.462C14.9249 11.894 15.0629 12.242 15.3389 12.506C15.6149 12.758 15.9689 12.884 16.4009 12.884ZM25.0063 2.48C24.6703 2.48 24.3943 2.372 24.1783 2.156C23.9743 1.94 23.8723 1.664 23.8723 1.328C23.8723 0.991999 23.9743 0.715999 24.1783 0.499999C24.3943 0.284 24.6703 0.176 25.0063 0.176C25.3423 0.176 25.6123 0.284 25.8163 0.499999C26.0323 0.715999 26.1403 0.991999 26.1403 1.328C26.1403 1.664 26.0323 1.94 25.8163 2.156C25.6123 2.372 25.3423 2.48 25.0063 2.48ZM25.7983 4.604V14H24.2143V4.604H25.7983ZM29.2593 0.428H30.8433V14H29.2593V0.428ZM42.1702 4.604L36.7882 18.176H35.1682L36.7882 14.108L33.0622 4.604H34.6822L37.6162 12.308L40.4782 4.604H42.1702ZM57.1254 14L54.5874 9.086H54.4074H51.5274V14H49.9434V1.472H54.1914C55.6914 1.472 56.8074 1.79 57.5394 2.426C58.2714 3.05 58.6374 3.968 58.6374 5.18C58.6374 6.08 58.4394 6.842 58.0434 7.466C57.6474 8.09 57.0654 8.534 56.2974 8.798L59.0334 14H57.1254ZM54.2094 7.592C55.1454 7.592 55.8294 7.412 56.2614 7.052C56.7054 6.68 56.9274 6.056 56.9274 5.18C56.9274 4.376 56.7054 3.812 56.2614 3.488C55.8294 3.152 55.1394 2.984 54.1914 2.984H51.5274V7.592H54.2094ZM69.8729 9.824H63.2129C63.3089 10.748 63.6149 11.486 64.1309 12.038C64.6589 12.578 65.3729 12.848 66.2729 12.848C66.8129 12.848 67.3349 12.74 67.8389 12.524C68.3549 12.296 68.8769 11.966 69.4049 11.534H69.4769V13.118C68.9489 13.502 68.4269 13.784 67.9109 13.964C67.3949 14.132 66.8429 14.216 66.2549 14.216C65.2949 14.216 64.4609 14.006 63.7529 13.586C63.0449 13.166 62.4989 12.584 62.1149 11.84C61.7429 11.084 61.5569 10.22 61.5569 9.248C61.5569 8.324 61.7249 7.496 62.0609 6.764C62.4089 6.02 62.9009 5.438 63.5369 5.018C64.1729 4.598 64.9169 4.388 65.7689 4.388C66.6329 4.388 67.3709 4.604 67.9829 5.036C68.6069 5.456 69.0749 6.038 69.3869 6.782C69.7109 7.526 69.8729 8.366 69.8729 9.302V9.824ZM65.7869 5.702C65.0429 5.702 64.4489 5.972 64.0049 6.512C63.5609 7.052 63.2969 7.748 63.2129 8.6H68.2349C68.1509 7.724 67.9049 7.022 67.4969 6.494C67.1009 5.966 66.5309 5.702 65.7869 5.702ZM77.3898 4.388C78.2058 4.388 78.9018 4.604 79.4778 5.036C80.0538 5.468 80.4858 6.056 80.7738 6.8C81.0738 7.544 81.2238 8.384 81.2238 9.32C81.2238 10.256 81.0498 11.096 80.7018 11.84C80.3658 12.572 79.8738 13.148 79.2258 13.568C78.5898 13.988 77.8338 14.198 76.9578 14.198C76.5138 14.198 76.0998 14.15 75.7158 14.054C75.3318 13.958 74.9238 13.82 74.4918 13.64V18.176H72.9078V6.692L72.5118 4.604H74.0958L74.3298 5.81C75.1458 4.862 76.1658 4.388 77.3898 4.388ZM76.7958 12.794C77.6598 12.794 78.3258 12.47 78.7938 11.822C79.2738 11.174 79.5138 10.34 79.5138 9.32C79.5138 8.3 79.3278 7.466 78.9558 6.818C78.5958 6.17 78.0258 5.846 77.2458 5.846C76.6938 5.846 76.1958 5.96 75.7518 6.188C75.3198 6.416 74.8998 6.752 74.4918 7.196V12.434C75.2718 12.674 76.0398 12.794 76.7958 12.794ZM88.3635 14.216C86.9955 14.216 85.9275 13.772 85.1595 12.884C84.3915 11.984 84.0075 10.79 84.0075 9.302C84.0075 7.814 84.3915 6.626 85.1595 5.738C85.9275 4.838 86.9955 4.388 88.3635 4.388C89.7315 4.388 90.7995 4.838 91.5675 5.738C92.3355 6.626 92.7195 7.814 92.7195 9.302C92.7195 10.79 92.3355 11.984 91.5675 12.884C90.7995 13.772 89.7315 14.216 88.3635 14.216ZM88.3635 12.848C89.2395 12.848 89.8995 12.524 90.3435 11.876C90.7875 11.228 91.0095 10.37 91.0095 9.302C91.0095 8.234 90.7875 7.376 90.3435 6.728C89.8995 6.08 89.2395 5.756 88.3635 5.756C87.4875 5.756 86.8275 6.08 86.3835 6.728C85.9515 7.376 85.7355 8.234 85.7355 9.302C85.7355 10.37 85.9515 11.228 86.3835 11.876C86.8275 12.524 87.4875 12.848 88.3635 12.848ZM100.633 4.388V6.134H100.363C99.7992 6.134 99.2892 6.236 98.8332 6.44C98.3892 6.644 98.0172 6.938 97.7172 7.322V14H96.1332V6.692L95.7372 4.604H97.3212L97.6452 6.278C98.1372 5.558 98.5512 5.066 98.8872 4.802C99.2352 4.526 99.6312 4.388 100.075 4.388H100.633ZM105.51 4.604H108.102V5.972H105.51V11.354C105.51 11.798 105.606 12.158 105.798 12.434C106.002 12.698 106.296 12.83 106.68 12.83C106.944 12.83 107.178 12.806 107.382 12.758C107.598 12.698 107.838 12.608 108.102 12.488V13.892C107.826 14.024 107.562 14.108 107.31 14.144C107.058 14.192 106.752 14.216 106.392 14.216C105.624 14.216 105.018 13.97 104.574 13.478C104.142 12.986 103.926 12.332 103.926 11.516V5.972H102.126V4.604H103.926V2.084L105.51 1.256V4.604Z" fill="#5E5E5E"/>
</svg>
